%TF.GenerationSoftware,KiCad,Pcbnew,(6.0.0)*%
%TF.CreationDate,2023-05-18T20:33:58-04:00*%
%TF.ProjectId,Project One _ Torchlight,50726f6a-6563-4742-904f-6e65205f2054,1.1*%
%TF.SameCoordinates,Original*%
%TF.FileFunction,Legend,Top*%
%TF.FilePolarity,Positive*%
%FSLAX46Y46*%
G04 Gerber Fmt 4.6, Leading zero omitted, Abs format (unit mm)*
G04 Created by KiCad (PCBNEW (6.0.0)) date 2023-05-18 20:33:58*
%MOMM*%
%LPD*%
G01*
G04 APERTURE LIST*
%ADD10C,0.150000*%
%ADD11C,0.120000*%
G04 APERTURE END LIST*
D10*
X91059047Y-90241428D02*
X91820952Y-90241428D01*
X91059047Y-98623428D02*
X91820952Y-98623428D01*
X91440000Y-99004380D02*
X91440000Y-98242476D01*
%TO.C,D1*%
X94432380Y-92178095D02*
X93432380Y-92178095D01*
X93432380Y-91940000D01*
X93480000Y-91797142D01*
X93575238Y-91701904D01*
X93670476Y-91654285D01*
X93860952Y-91606666D01*
X94003809Y-91606666D01*
X94194285Y-91654285D01*
X94289523Y-91701904D01*
X94384761Y-91797142D01*
X94432380Y-91940000D01*
X94432380Y-92178095D01*
X94432380Y-90654285D02*
X94432380Y-91225714D01*
X94432380Y-90940000D02*
X93432380Y-90940000D01*
X93575238Y-91035238D01*
X93670476Y-91130476D01*
X93718095Y-91225714D01*
X88932380Y-95892857D02*
X88932380Y-96369047D01*
X87932380Y-96369047D01*
X88408571Y-95559523D02*
X88408571Y-95226190D01*
X88932380Y-95083333D02*
X88932380Y-95559523D01*
X87932380Y-95559523D01*
X87932380Y-95083333D01*
X88932380Y-94654761D02*
X87932380Y-94654761D01*
X87932380Y-94416666D01*
X87980000Y-94273809D01*
X88075238Y-94178571D01*
X88170476Y-94130952D01*
X88360952Y-94083333D01*
X88503809Y-94083333D01*
X88694285Y-94130952D01*
X88789523Y-94178571D01*
X88884761Y-94273809D01*
X88932380Y-94416666D01*
X88932380Y-94654761D01*
%TO.C,BT1*%
X136374285Y-104703571D02*
X136517142Y-104751190D01*
X136564761Y-104798809D01*
X136612380Y-104894047D01*
X136612380Y-105036904D01*
X136564761Y-105132142D01*
X136517142Y-105179761D01*
X136421904Y-105227380D01*
X136040952Y-105227380D01*
X136040952Y-104227380D01*
X136374285Y-104227380D01*
X136469523Y-104275000D01*
X136517142Y-104322619D01*
X136564761Y-104417857D01*
X136564761Y-104513095D01*
X136517142Y-104608333D01*
X136469523Y-104655952D01*
X136374285Y-104703571D01*
X136040952Y-104703571D01*
X136898095Y-104227380D02*
X137469523Y-104227380D01*
X137183809Y-105227380D02*
X137183809Y-104227380D01*
X138326666Y-105227380D02*
X137755238Y-105227380D01*
X138040952Y-105227380D02*
X138040952Y-104227380D01*
X137945714Y-104370238D01*
X137850476Y-104465476D01*
X137755238Y-104513095D01*
X135088571Y-82732571D02*
X135231428Y-82780190D01*
X135279047Y-82827809D01*
X135326666Y-82923047D01*
X135326666Y-83065904D01*
X135279047Y-83161142D01*
X135231428Y-83208761D01*
X135136190Y-83256380D01*
X134755238Y-83256380D01*
X134755238Y-82256380D01*
X135088571Y-82256380D01*
X135183809Y-82304000D01*
X135231428Y-82351619D01*
X135279047Y-82446857D01*
X135279047Y-82542095D01*
X135231428Y-82637333D01*
X135183809Y-82684952D01*
X135088571Y-82732571D01*
X134755238Y-82732571D01*
X136183809Y-83256380D02*
X136183809Y-82732571D01*
X136136190Y-82637333D01*
X136040952Y-82589714D01*
X135850476Y-82589714D01*
X135755238Y-82637333D01*
X136183809Y-83208761D02*
X136088571Y-83256380D01*
X135850476Y-83256380D01*
X135755238Y-83208761D01*
X135707619Y-83113523D01*
X135707619Y-83018285D01*
X135755238Y-82923047D01*
X135850476Y-82875428D01*
X136088571Y-82875428D01*
X136183809Y-82827809D01*
X136517142Y-82589714D02*
X136898095Y-82589714D01*
X136660000Y-82256380D02*
X136660000Y-83113523D01*
X136707619Y-83208761D01*
X136802857Y-83256380D01*
X136898095Y-83256380D01*
X137088571Y-82589714D02*
X137469523Y-82589714D01*
X137231428Y-82256380D02*
X137231428Y-83113523D01*
X137279047Y-83208761D01*
X137374285Y-83256380D01*
X137469523Y-83256380D01*
X138183809Y-83208761D02*
X138088571Y-83256380D01*
X137898095Y-83256380D01*
X137802857Y-83208761D01*
X137755238Y-83113523D01*
X137755238Y-82732571D01*
X137802857Y-82637333D01*
X137898095Y-82589714D01*
X138088571Y-82589714D01*
X138183809Y-82637333D01*
X138231428Y-82732571D01*
X138231428Y-82827809D01*
X137755238Y-82923047D01*
X138660000Y-83256380D02*
X138660000Y-82589714D01*
X138660000Y-82780190D02*
X138707619Y-82684952D01*
X138755238Y-82637333D01*
X138850476Y-82589714D01*
X138945714Y-82589714D01*
X139183809Y-82589714D02*
X139421904Y-83256380D01*
X139660000Y-82589714D02*
X139421904Y-83256380D01*
X139326666Y-83494476D01*
X139279047Y-83542095D01*
X139183809Y-83589714D01*
%TO.C,SW1*%
X106616666Y-91354761D02*
X106759523Y-91402380D01*
X106997619Y-91402380D01*
X107092857Y-91354761D01*
X107140476Y-91307142D01*
X107188095Y-91211904D01*
X107188095Y-91116666D01*
X107140476Y-91021428D01*
X107092857Y-90973809D01*
X106997619Y-90926190D01*
X106807142Y-90878571D01*
X106711904Y-90830952D01*
X106664285Y-90783333D01*
X106616666Y-90688095D01*
X106616666Y-90592857D01*
X106664285Y-90497619D01*
X106711904Y-90450000D01*
X106807142Y-90402380D01*
X107045238Y-90402380D01*
X107188095Y-90450000D01*
X107521428Y-90402380D02*
X107759523Y-91402380D01*
X107950000Y-90688095D01*
X108140476Y-91402380D01*
X108378571Y-90402380D01*
X109283333Y-91402380D02*
X108711904Y-91402380D01*
X108997619Y-91402380D02*
X108997619Y-90402380D01*
X108902380Y-90545238D01*
X108807142Y-90640476D01*
X108711904Y-90688095D01*
%TO.C,R1*%
X95052380Y-95416666D02*
X94576190Y-95750000D01*
X95052380Y-95988095D02*
X94052380Y-95988095D01*
X94052380Y-95607142D01*
X94100000Y-95511904D01*
X94147619Y-95464285D01*
X94242857Y-95416666D01*
X94385714Y-95416666D01*
X94480952Y-95464285D01*
X94528571Y-95511904D01*
X94576190Y-95607142D01*
X94576190Y-95988095D01*
X95052380Y-94464285D02*
X95052380Y-95035714D01*
X95052380Y-94750000D02*
X94052380Y-94750000D01*
X94195238Y-94845238D01*
X94290476Y-94940476D01*
X94338095Y-95035714D01*
D11*
%TO.C,D1*%
X92676000Y-93690000D02*
X92520000Y-93690000D01*
X90360000Y-93690000D02*
X90204000Y-93690000D01*
X90360000Y-94209039D02*
G75*
G03*
X90360163Y-96291130I1080000J-1040961D01*
G01*
X92519837Y-96291130D02*
G75*
G03*
X92520000Y-94209039I-1079837J1041130D01*
G01*
X92518608Y-96922335D02*
G75*
G03*
X92675516Y-93690000I-1078609J1672335D01*
G01*
X90204484Y-93690000D02*
G75*
G03*
X90361392Y-96922335I1235517J-1560000D01*
G01*
%TO.C,BT1*%
X125810000Y-86900000D02*
X148510000Y-86900000D01*
X151710000Y-91400000D02*
X151710000Y-92950000D01*
X125810000Y-91400000D02*
X122610000Y-91400000D01*
X125810000Y-101800000D02*
X125810000Y-99100000D01*
X124160000Y-100250000D02*
X124160000Y-102250000D01*
X125810000Y-86900000D02*
X125810000Y-91400000D01*
X151710000Y-99100000D02*
X151710000Y-97550000D01*
X122610000Y-99100000D02*
X122610000Y-97550000D01*
X148510000Y-103600000D02*
X127610000Y-103600000D01*
X127610000Y-103600000D02*
X125810000Y-101800000D01*
X125810000Y-99100000D02*
X122610000Y-99100000D01*
X148510000Y-99100000D02*
X151710000Y-99100000D01*
X148510000Y-86900000D02*
X148510000Y-91400000D01*
X148510000Y-91400000D02*
X151710000Y-91400000D01*
X122610000Y-91400000D02*
X122610000Y-92950000D01*
X125160000Y-101250000D02*
X123160000Y-101250000D01*
X148510000Y-103600000D02*
X148510000Y-99100000D01*
%TO.C,SW1*%
X104980000Y-98370000D02*
X110920000Y-98370000D01*
X111070000Y-93910000D02*
X111070000Y-96590000D01*
X104830000Y-96590000D02*
X104830000Y-93910000D01*
X104980000Y-92130000D02*
X110920000Y-92130000D01*
X109364214Y-95250000D02*
G75*
G03*
X109364214Y-95250000I-1414214J0D01*
G01*
%TO.C,R1*%
X96520000Y-92380000D02*
X96520000Y-93330000D01*
X97440000Y-93330000D02*
X95600000Y-93330000D01*
X95600000Y-97170000D02*
X97440000Y-97170000D01*
X95600000Y-93330000D02*
X95600000Y-97170000D01*
X96520000Y-98120000D02*
X96520000Y-97170000D01*
X97440000Y-97170000D02*
X97440000Y-93330000D01*
%TD*%
M02*
